<?xml version="1.0" standalone="no"?><!DOCTYPE svg PUBLIC "-//W3C//DTD SVG 1.1//EN" "http://www.w3.org/Graphics/SVG/1.1/DTD/svg11.dtd"><svg t="1680961119393" class="icon" viewBox="0 0 1024 1024" version="1.1" xmlns="http://www.w3.org/2000/svg" p-id="3706" xmlns:xlink="http://www.w3.org/1999/xlink" width="200" height="200"><path d="M688 25.008V24h33.416c3.04 0 4.056 2.016 4.056 4.032 0 18.128 3.04 37.272 8.096 54.4l0.64 2.384 1.2 4.888c1.2 4.928 6.256 17.744 6.632 18.744l1.104 3.072c0.4 1.024 0.88 2.032 1.568 2.976l1.008 1.176 2.48 6.088c1.968 4.72 5.584 11.336 10.848 19.872l6.928 10.312c7.36 9.304 11.448 14.432 12.272 15.384l1.232 1.456c0.632 0.728 1.312 1.44 2.144 1.984 13.232 16.2 28.488 29.36 44.768 41.504a256.12 256.12 0 0 0 68.368 34.768c16.28 5.392 27.76 8.472 34.432 9.224l9.736 0.472 9.456 0.48 2.496 0.08c5.064 0 9.12 2.032 9.12 5.072l-0.024 58.032-0.992 99.104c0 9.36-1.424 11.576-7.888 12.048l-1.984 0.088-2.28 0.024c-13.168 0-26.336-1.016-40.52-3.04-23.304-3.04-45.584-8.112-66.856-14.192-37.488-11.152-71.92-27.376-104.344-48.664l-0.76-0.6-1.52-0.824a4.208 4.208 0 0 1-0.76-0.6c-3.04-2.032-4.048-1.016-4.048 2.024v323.392c0 27.44-3.528 53.12-10.592 79.496l-1.568 5.664c-4.048 15.2-9.12 30.408-16.208 44.608 0 1.008-1.008 1.008-1.008 2.024l-2.24 4.176-4.336 8.32c-3.584 6.88-7.232 13.608-11.664 19.944 0 1.016-1.008 1.016-1.008 2.024-15.2 24.336-33.432 46.64-55.72 65.896-3.04 2.032-6.08 5.072-8.104 8.112-7.088 5.072-13.168 11.152-21.272 14.192l-7.44 4.56-14.496 9.12c-2.44 1.528-4.904 3.048-7.44 4.568a289.992 289.992 0 0 1-81.04 30.416c-28.36 6.08-57.736 9.12-86.104 7.096-25.328-2.032-49.64-6.08-72.936-14.192a339.568 339.568 0 0 1-55.712-23.32c-7.432-3.376-12.496-6.08-15.2-8.112-9.12-3.8-16.52-9.312-23.928-15.248l-7.472-6.04c-1.016-0.504-27.984-21.776-51.384-51.128-23.4-29.36-41.712-62.76-52.904-98.184C109.088 754.808 104 725.456 104 695.088c0-17.2 0-34.416 3.056-51.624a404.048 404.048 0 0 1 18.312-68.824c15.568-37.76 37.656-70.888 65.368-101.16a192.696 192.696 0 0 1 13.04-12.24 697.152 697.152 0 0 1 12.144-10.088l1.016-1.016a370.16 370.16 0 0 1 68.168-43.52c21.368-10.128 43.76-17.208 67.152-22.272l8.6-1.6c21.072-4.288 50.84-6.584 62.256-6.584 7.6 0 20.216 1.024 37.824 3.056 2.56 0 2.976 0.712 3.048 2.712l0.016 1.36v173.088c-17.376-6.112-35.776-9.168-54.184-8.144-20.44 1.016-39.864 6.104-59.288 15.272-22.488 11.2-40.896 27.488-54.184 48.864-16.352 25.456-22.488 53.96-21.464 85.52 0.944 20.696 2.192 23.896 10.224 42.624s8.592 18.776 22.56 33.808c13.952 15.024 24.56 22.68 43.6 32.592l3.032 1.544c17.296 9.112 36.624 14.168 55.96 14.168 12.208 0 25.44-1.008 37.648-4.048 41.712-11.128 72.24-36.44 90.552-75.912a124.96 124.96 0 0 0 11.192-43.52c2.712-51.832 2.816-103.36 2.48-154.92l-0.448-58.024c-0.136-19.36-0.216-38.736-0.136-58.144l0.136-19.416c0.584-55.528 0.496-110.72 0.32-165.968l-0.264-82.952a17644.8 17644.8 0 0 1-0.056-41.584V33.984l0.072-2.064c0.336-6.072 2.08-7.76 9.84-7.912L680.904 24c2.032 0 5.072 0 7.112 1.008z" fill="#FFFFFF" p-id="3707"></path></svg>